<?xml version="1.0" standalone="no"?>
<!DOCTYPE svg PUBLIC "-//W3C//DTD SVG 20010904//EN"
 "http://www.w3.org/TR/2001/REC-SVG-20010904/DTD/svg10.dtd">
<svg version="1.0" xmlns="http://www.w3.org/2000/svg"
 width="1534.000000pt" height="882.000000pt" viewBox="0 0 1534.000000 882.000000"
 preserveAspectRatio="xMidYMid meet">

<g transform="translate(0.000000,882.000000) scale(0.100000,-0.100000)"
fill="#000000" stroke="none">
<path d="M9762 8800 c-228 -19 -386 -77 -702 -261 -63 -36 -493 -283 -955
-549 -840 -482 -1013 -582 -1370 -787 -104 -61 -327 -188 -495 -283 -439 -249
-1444 -824 -2185 -1250 -690 -397 -842 -484 -1180 -678 -656 -375 -2047 -1175
-2358 -1356 -115 -66 -238 -145 -273 -174 -231 -190 -298 -485 -168 -732 63
-120 160 -213 329 -315 44 -26 98 -60 120 -75 22 -15 60 -37 85 -48 44 -21
111 -58 160 -90 14 -9 54 -32 90 -52 36 -20 108 -62 160 -92 594 -346 1144
-666 1180 -686 25 -14 135 -78 245 -142 265 -155 311 -180 319 -175 3 3 4 2 1
-2 -8 -10 55 -44 68 -37 7 4 9 4 5 -1 -9 -9 132 -96 144 -89 4 3 8 1 8 -5 0
-12 104 -73 118 -69 6 2 17 -4 24 -14 15 -19 447 -271 465 -271 7 0 11 -2 8
-5 -2 -2 54 -38 126 -79 88 -51 136 -72 149 -68 10 3 29 -1 42 -9 31 -20 155
-52 258 -66 128 -18 402 -15 475 4 32 9 68 16 79 16 18 0 50 10 131 39 57 21
123 43 143 48 12 3 22 9 22 13 0 5 14 11 30 15 16 4 30 10 30 14 0 10 91 53
98 46 3 -3 1 -5 -4 -5 -5 0 -33 -16 -63 -35 -29 -19 -59 -35 -67 -35 -8 0 -14
-4 -14 -8 0 -12 -138 -75 -219 -101 -97 -32 -223 -53 -356 -60 l-120 -7 150
-8 c343 -20 585 19 799 126 102 51 439 243 706 401 47 27 99 58 115 67 17 9
107 61 200 115 94 55 197 114 230 133 33 18 101 57 150 86 50 29 151 88 225
131 333 192 474 273 595 343 72 42 184 106 250 144 66 37 146 82 177 100 32
18 127 74 211 123 85 50 193 113 241 140 48 28 139 80 202 117 64 38 117 68
120 68 2 0 52 28 111 63 60 35 126 74 148 86 22 13 123 72 225 131 102 59 205
118 230 132 60 33 717 413 905 523 270 158 418 240 515 284 52 24 169 87 260
139 91 53 194 112 230 132 166 93 225 130 315 195 44 31 90 61 101 65 92 36
182 85 659 360 61 35 142 87 180 116 69 51 320 203 473 285 42 23 102 55 132
72 30 16 120 69 200 117 141 86 294 174 630 367 266 153 329 205 378 311 20
44 24 64 19 107 -7 71 -36 134 -87 188 -39 43 -42 50 -50 129 -18 166 -66 265
-185 383 -96 94 -74 81 -870 534 -335 191 -920 525 -1300 743 -379 217 -827
474 -995 570 -542 311 -574 327 -746 367 -73 17 -312 45 -334 39 -3 0 -47 -4
-98 -8z m363 -75 c100 -29 168 -62 359 -173 72 -41 190 -109 261 -149 72 -41
136 -82 142 -91 11 -13 3 -25 -57 -81 -70 -66 -77 -79 -71 -141 7 -70 32 -87
721 -480 272 -156 601 -344 730 -419 295 -170 384 -215 456 -230 122 -24 246
-9 363 44 90 42 66 51 421 -152 303 -174 351 -206 404 -264 78 -87 83 -176 16
-274 -40 -59 -75 -81 -590 -377 -157 -91 -510 -294 -785 -453 -275 -159 -657
-379 -850 -490 -192 -111 -532 -307 -755 -435 -223 -128 -484 -279 -580 -335
-96 -56 -299 -173 -450 -260 -151 -87 -318 -183 -370 -213 -340 -196 -426
-245 -437 -245 -7 0 -14 -6 -17 -14 -3 -7 -12 -13 -20 -13 -8 0 -16 -3 -18 -7
-1 -5 -19 -17 -38 -27 -19 -10 -68 -38 -109 -62 -41 -24 -78 -41 -82 -39 -4 3
-9 -2 -13 -10 -3 -8 -12 -15 -20 -15 -8 0 -16 -3 -18 -7 -1 -5 -28 -21 -58
-37 -30 -16 -68 -38 -83 -49 -15 -10 -34 -20 -42 -21 -9 -1 -21 -8 -27 -14 -7
-7 -17 -12 -23 -12 -7 0 -20 -9 -29 -19 -10 -11 -31 -23 -46 -26 -16 -3 -31
-13 -34 -21 -3 -8 -17 -14 -31 -14 -15 0 -24 -4 -20 -10 3 -5 4 -10 1 -10 -2
0 -12 -3 -22 -7 -11 -4 -15 -3 -10 5 3 6 1 14 -5 18 -7 4 -9 3 -6 -3 4 -6 0
-19 -9 -29 -13 -17 -16 -18 -26 -3 -9 14 -16 15 -35 6 -13 -5 -23 -14 -23 -19
0 -4 -7 -8 -15 -8 -12 0 -15 17 -15 90 l0 90 -40 0 c-33 0 -40 -3 -40 -20 0
-11 -4 -20 -10 -20 -5 0 -10 9 -10 20 0 11 -4 20 -10 20 -5 0 -10 -7 -10 -15
0 -8 -4 -15 -10 -15 -5 0 -10 7 -10 15 0 10 -10 15 -30 15 -30 0 -30 0 -30 57
0 50 3 60 28 80 15 12 21 22 15 23 -7 0 -13 -5 -13 -12 0 -6 -3 -8 -6 -5 -8 8
-64 -24 -64 -36 0 -4 -4 -5 -10 -2 -5 3 -10 2 -10 -4 0 -5 5 -13 10 -16 14 -8
13 -45 -1 -45 -7 0 -20 9 -29 20 -17 20 -19 20 -36 3 -17 -17 -22 -19 -52 -22
-7 0 -10 -6 -7 -12 4 -6 0 -9 -11 -7 -11 2 -18 -2 -17 -9 2 -7 -3 -10 -11 -7
-7 3 -20 -2 -29 -10 -8 -8 -17 -12 -21 -9 -3 3 -8 -2 -12 -11 -3 -9 -9 -14
-14 -11 -4 2 -29 -10 -56 -26 -62 -40 -61 -38 -44 -49 9 -6 10 -10 3 -10 -6 0
-15 4 -18 10 -7 11 -71 -20 -103 -50 -12 -12 -22 -18 -22 -15 0 3 -19 -5 -42
-18 -132 -73 -158 -90 -158 -96 0 -4 -6 -8 -12 -8 -11 0 -102 -51 -398 -223
-30 -18 -143 -83 -250 -145 -167 -96 -421 -242 -1280 -738 -434 -250 -417
-243 -491 -210 -24 11 -105 55 -179 98 -74 43 -277 160 -450 260 -173 100
-562 325 -865 500 -302 175 -649 375 -770 445 -121 71 -393 228 -605 350 -211
122 -390 229 -397 238 -16 22 -16 72 0 94 7 9 98 66 203 126 104 60 457 264
784 452 327 189 663 382 745 430 83 47 256 147 385 222 129 74 397 229 595
343 198 115 475 274 615 355 487 280 655 378 710 410 30 19 97 57 147 85 51
28 90 55 85 59 -4 4 -2 7 3 6 22 -5 36 1 29 12 -4 7 -3 8 4 4 14 -9 191 94
192 112 0 6 5 12 11 12 5 0 7 -5 4 -11 -4 -6 2 -5 14 3 12 7 19 19 16 25 -2 7
0 13 5 13 6 0 10 -4 10 -9 0 -5 22 3 50 17 27 14 47 29 44 34 -3 4 -2 8 3 9
28 2 47 9 57 19 8 9 5 11 -14 6 -23 -7 -24 -6 -7 8 17 13 18 27 13 163 -7 186
-14 243 -31 243 -7 0 -15 5 -17 11 -3 9 -10 9 -26 0 -12 -6 -22 -10 -22 -7 0
7 133 79 147 79 7 0 10 4 8 8 -3 4 2 9 10 13 8 3 15 1 15 -3 0 -5 9 -7 20 -4
19 5 25 16 21 37 -1 5 5 4 13 -3 13 -11 17 -10 24 8 4 12 32 36 61 52 29 17
50 26 47 20 -4 -6 0 -11 9 -11 11 0 15 5 12 14 -4 9 10 22 41 37 26 13 53 30
60 37 7 6 18 12 23 12 18 0 24 3 36 19 7 9 13 12 13 7 0 -5 9 -1 20 9 11 10
20 14 20 10 0 -5 6 -2 13 7 6 8 37 28 67 44 30 16 61 35 68 42 8 7 21 11 29 8
8 -3 12 -2 9 2 -5 9 252 159 266 154 4 -1 8 2 8 8 0 5 24 21 53 35 28 14 80
43 114 64 34 22 104 63 155 92 109 61 122 69 248 141 52 30 115 67 140 80 25
14 189 109 365 210 485 280 779 449 1000 576 110 63 223 125 252 138 172 77
413 92 598 39z m2336 -1460 c-1 -15 -24 -12 -29 3 -3 9 2 13 12 10 10 -1 17
-7 17 -13z m-6351 -555 c-9 -6 -9 -9 1 -13 12 -4 11 -7 -1 -16 -24 -17 -40
-13 -37 10 4 23 26 41 40 32 5 -3 4 -9 -3 -13z m-41 -54 c1 -5 -5 -4 -11 1 -7
5 -23 8 -35 7 -29 -2 -29 2 -2 17 17 9 20 8 15 -3 -4 -7 -1 -5 6 4 12 17 13
17 20 0 3 -9 7 -21 7 -26z m102 -12 l-8 -29 -5 29 c-3 17 -3 36 0 44 10 27 22
-12 13 -44z m-187 -4 c-17 -4 -36 -10 -42 -14 -7 -4 -12 -5 -12 -2 0 11 55 33
70 28 10 -4 5 -8 -16 -12z m-104 -51 c-17 -14 -21 -22 -12 -26 6 -2 12 -12 12
-21 -1 -15 -2 -15 -15 1 -10 14 -20 17 -37 12 -29 -9 -19 2 29 31 47 29 56 30
23 3z m-94 -61 c4 -7 4 -10 -1 -6 -4 4 -17 3 -29 -3 -20 -10 -20 -10 -2 5 24
19 23 19 32 4z m-76 -33 c0 -2 -13 -11 -30 -20 -38 -19 -40 -11 -2 9 31 17 32
18 32 11z m-76 -48 c-3 -8 -12 -14 -21 -14 -13 0 -13 2 3 14 10 7 19 13 21 13
1 0 0 -6 -3 -13z m-58 -32 c-11 -8 -25 -15 -30 -15 -6 0 -4 -5 4 -10 9 -6 10
-10 3 -10 -25 0 -22 20 4 34 36 19 44 20 19 1z m-79 -48 c0 -7 -9 -13 -19 -13
-18 0 -18 1 -2 13 10 7 18 13 19 13 1 0 2 -6 2 -13z m-81 -42 c-13 -10 -15
-15 -6 -15 7 0 11 -3 7 -6 -3 -3 -11 -3 -18 2 -9 5 -7 11 6 21 11 7 21 13 24
13 3 0 -3 -7 -13 -15z m-36 -20 c0 -2 -13 -11 -30 -20 -38 -19 -40 -11 -2 9
31 17 32 18 32 11z m-70 -40 c0 -2 -13 -11 -30 -20 -38 -19 -40 -11 -2 9 31
17 32 18 32 11z m-70 -40 c0 -2 -13 -11 -30 -20 -38 -19 -40 -11 -2 9 31 17
32 18 32 11z m-70 -40 c0 -2 -13 -11 -30 -20 -38 -19 -40 -11 -2 9 31 17 32
18 32 11z m8998 -108 c-6 -106 -53 -190 -138 -250 -14 -9 -40 -28 -59 -42 -19
-14 -39 -25 -44 -25 -5 0 -32 -15 -60 -33 -55 -36 -126 -77 -132 -77 -2 0 -11
24 -21 53 -9 28 -25 69 -35 89 l-19 37 48 27 c252 144 309 182 377 251 82 83
89 80 83 -30z m-9068 68 c0 -2 -10 -9 -22 -15 -22 -11 -22 -10 -4 4 21 17 26
19 26 11z m-70 -40 c0 -2 -10 -9 -22 -15 -22 -11 -22 -10 -4 4 21 17 26 19 26
11z m-50 -30 c0 -2 -13 -11 -30 -20 -38 -19 -40 -11 -2 9 31 17 32 18 32 11z
m-70 -39 c0 -2 -37 -25 -82 -51 -104 -60 -105 -60 -95 -49 7 7 168 103 175
104 1 0 2 -2 2 -4z m-190 -110 c0 -2 -26 -19 -57 -36 -32 -18 -78 -44 -103
-58 -25 -14 -40 -21 -35 -15 9 9 185 113 193 113 1 0 2 -2 2 -4z m-215 -125
c-6 -5 -192 -114 -415 -241 -582 -335 -594 -342 -2140 -1233 -448 -258 -948
-546 -1110 -640 -162 -93 -310 -178 -327 -189 -54 -32 -37 -10 19 26 29 18
388 226 798 461 705 405 910 522 1540 885 146 84 346 199 445 255 99 57 407
234 685 394 278 160 507 291 510 291 2 0 0 -4 -5 -9z m9129 -70 c14 -32 26
-74 26 -93 0 -30 -5 -37 -42 -56 -45 -23 -80 -44 -88 -52 -3 -3 -27 -16 -55
-30 -27 -14 -69 -37 -91 -52 -23 -16 -45 -28 -50 -28 -4 0 -15 -6 -23 -14 -9
-7 -47 -31 -86 -51 -38 -21 -89 -51 -113 -66 -24 -16 -45 -29 -47 -29 -2 0
-42 -22 -90 -50 -48 -27 -89 -50 -92 -50 -3 0 -31 -17 -62 -38 -31 -21 -76
-48 -101 -60 -25 -12 -58 -31 -75 -41 -31 -19 -77 -45 -142 -82 -21 -12 -45
-27 -54 -35 -8 -8 -22 -14 -29 -14 -15 0 -93 -50 -98 -62 -2 -5 -8 -8 -14 -8
-6 0 -36 -15 -67 -32 -46 -27 -65 -32 -106 -30 -55 4 -16 24 -485 -248 -107
-61 -284 -164 -394 -227 -259 -149 -273 -159 -302 -209 -26 -45 -42 -57 -133
-106 -31 -17 -74 -43 -96 -57 -22 -15 -58 -36 -80 -46 -22 -11 -61 -35 -87
-52 -26 -18 -53 -33 -59 -33 -6 0 -22 -9 -36 -20 -14 -11 -31 -20 -39 -20 -7
0 -14 -3 -16 -7 -1 -5 -23 -19 -48 -32 -25 -13 -63 -36 -85 -50 -22 -14 -69
-42 -105 -60 -36 -19 -76 -43 -89 -53 -13 -10 -28 -18 -34 -18 -6 0 -19 -8
-30 -17 -14 -14 -36 -18 -88 -18 -40 0 -73 -5 -80 -12 -9 -9 -4 -10 24 -1 28
9 40 8 52 -2 14 -11 9 -17 -37 -42 -29 -16 -54 -33 -56 -38 -2 -6 -10 -10 -17
-10 -7 0 -61 -29 -120 -65 -58 -36 -110 -65 -114 -65 -5 0 -14 -7 -21 -15 -7
-8 -18 -15 -25 -15 -7 0 -64 -31 -126 -68 -63 -38 -139 -82 -169 -99 -30 -17
-87 -49 -127 -72 -40 -22 -77 -41 -82 -41 -5 0 -11 -4 -13 -9 -5 -15 -118 -72
-118 -59 0 6 12 27 27 47 23 31 24 33 4 16 -13 -11 -30 -33 -38 -50 -25 -49
-36 -57 -173 -132 -19 -10 -53 -30 -75 -43 -70 -43 -78 -48 -160 -91 -44 -23
-92 -50 -107 -60 -14 -11 -31 -19 -37 -19 -6 0 -11 -4 -11 -9 0 -5 -8 -11 -17
-15 -22 -7 -123 -64 -143 -80 -8 -7 -37 -23 -65 -37 -27 -13 -51 -27 -53 -31
-2 -5 -7 -8 -12 -8 -5 0 -45 -22 -90 -50 -45 -27 -84 -50 -87 -50 -3 0 -18
-10 -35 -21 -16 -12 -50 -32 -75 -46 -49 -26 -104 -56 -168 -93 -22 -13 -56
-33 -76 -44 -20 -12 -61 -35 -90 -52 -30 -17 -70 -39 -89 -50 -19 -10 -36 -22
-38 -26 -2 -5 -7 -8 -12 -8 -7 0 -115 -61 -290 -163 -19 -11 -55 -32 -80 -46
-25 -13 -58 -34 -75 -46 -16 -12 -50 -32 -75 -44 -40 -20 -88 -46 -210 -118
-82 -48 -359 -208 -400 -231 -25 -13 -52 -30 -60 -37 -8 -6 -22 -15 -30 -18
-8 -4 -36 -19 -62 -34 -26 -16 -75 -44 -110 -64 -35 -20 -81 -47 -103 -59 -22
-13 -56 -33 -77 -44 -20 -12 -82 -47 -138 -80 -81 -46 -104 -56 -111 -45 -5 8
-9 20 -9 27 0 7 -13 41 -29 76 l-28 63 301 173 c165 95 337 194 381 220 44 26
143 83 220 128 146 84 548 316 770 444 72 42 166 95 210 120 74 41 157 89 565
326 80 46 258 149 395 227 138 79 318 182 400 230 83 48 269 156 415 240 146
83 380 218 520 300 271 157 511 296 1375 795 297 172 639 370 760 440 121 70
429 248 685 395 256 147 512 295 570 329 398 233 627 364 636 365 6 1 23 -25
38 -58z m215 -195 c-2 -2 -15 -9 -29 -15 -24 -11 -24 -11 -6 3 16 13 49 24 35
12z m-289 -161 c0 -2 -9 -9 -20 -15 -12 -6 -20 -7 -20 -1 0 5 8 12 18 14 9 3
18 5 20 6 1 0 2 -1 2 -4z m-145 -85 c-3 -5 -12 -10 -18 -10 -7 0 -6 4 3 10 19
12 23 12 15 0z m-130 -80 c-3 -5 -11 -10 -16 -10 -6 0 -7 5 -4 10 3 6 11 10
16 10 6 0 7 -4 4 -10z m-131 -75 c-10 -8 -25 -15 -33 -15 -11 0 -9 4 5 15 10
8 25 15 33 15 11 0 9 -4 -5 -15z m-65 -39 c-2 -2 -15 -9 -29 -15 -24 -11 -24
-11 -6 3 16 13 49 24 35 12z m-139 -80 c0 -2 -13 -9 -30 -15 -35 -12 -41 -5
-7 9 25 10 37 12 37 6z m-245 -136 c-8 -12 -74 -44 -80 -38 -3 2 14 14 38 26
48 25 50 26 42 12z m-96 -53 c-2 -1 -13 -9 -24 -17 -19 -14 -19 -14 -6 3 7 9
18 17 24 17 6 0 8 -1 6 -3z m-79 -51 c0 -3 -4 -8 -10 -11 -5 -3 -10 -1 -10 4
0 6 5 11 10 11 6 0 10 -2 10 -4z m-50 -26 c-13 -11 -25 -20 -28 -20 -3 0 3 9
13 20 10 11 23 20 28 20 6 0 0 -9 -13 -20z m-325 -39 c3 -5 -5 -13 -17 -16
-13 -4 -36 -17 -53 -29 -16 -12 -66 -42 -110 -66 -44 -23 -82 -46 -85 -49 -3
-3 -18 -13 -35 -21 -16 -8 -32 -17 -35 -20 -3 -3 -30 -18 -60 -34 -30 -16 -62
-34 -70 -41 -8 -6 -35 -22 -60 -34 -25 -13 -47 -26 -50 -30 -3 -4 -21 -15 -41
-24 -20 -9 -42 -23 -49 -32 -7 -8 -19 -15 -27 -15 -19 0 -76 -31 -86 -47 -4
-7 -14 -13 -21 -13 -7 0 -24 -8 -37 -18 -22 -18 -52 -35 -169 -100 -79 -43
-85 -47 -120 -72 -46 -32 -60 -34 -60 -4 0 13 5 24 10 24 6 0 10 -8 10 -17 0
-13 7 -8 23 14 12 17 33 38 47 46 41 23 541 312 765 442 116 68 228 132 250
144 43 22 70 27 80 12z m225 -18 c-8 -3 -18 -11 -22 -17 -4 -6 -10 -7 -15 -3
-9 10 16 27 37 26 13 -1 13 -1 0 -6z m-85 -53 c-7 -11 -71 -40 -88 -40 -23 0
49 38 91 49 2 1 0 -4 -3 -9z m-245 -144 c0 -2 -7 -7 -16 -10 -8 -3 -12 -2 -9
4 6 10 25 14 25 6z m-150 -80 c0 -2 -7 -7 -16 -10 -8 -3 -12 -2 -9 4 6 10 25
14 25 6z m-927 -542 c-49 -30 -68 -31 -26 -1 18 12 33 28 33 36 0 11 3 11 15
1 14 -11 11 -16 -22 -36z m-63 -28 c0 -3 -4 -8 -10 -11 -5 -3 -10 -1 -10 4 0
6 5 11 10 11 6 0 10 -2 10 -4z m-54 -41 c-10 -8 -24 -11 -29 -8 -6 4 -2 10 9
14 31 12 40 9 20 -6z m-51 -25 c-3 -5 -16 -15 -28 -21 -22 -12 -22 -12 -3 10
19 21 43 30 31 11z m-95 -50 c0 -5 -5 -10 -11 -10 -5 0 -7 5 -4 10 3 6 8 10
11 10 2 0 4 -4 4 -10z m-60 -35 c0 -2 -10 -9 -22 -15 -22 -11 -22 -10 -4 4 21
17 26 19 26 11z m-140 -89 c0 -2 -7 -7 -16 -10 -8 -3 -12 -2 -9 4 6 10 25 14
25 6z m-80 -36 c0 -5 -18 -19 -40 -30 -22 -11 -40 -17 -40 -12 0 5 16 14 35
22 19 8 35 17 35 22 0 4 2 8 5 8 3 0 5 -4 5 -10z m-276 -165 c-25 -19 -38 -19
-22 0 7 8 19 14 27 15 11 0 9 -4 -5 -15z m-64 -40 c-7 -8 -17 -12 -23 -8 -6 4
-3 9 9 14 27 11 28 11 14 -6z m-53 -31 c-3 -3 -12 -4 -19 -1 -8 3 -5 6 6 6 11
1 17 -2 13 -5z m-87 -43 c0 -5 -7 -12 -16 -15 -14 -5 -15 -4 -4 9 14 17 20 19
20 6z m-2150 -65 c0 -11 -19 -15 -25 -6 -3 5 1 10 9 10 9 0 16 -2 16 -4z m366
-223 c-10 -10 -19 5 -10 18 6 11 8 11 12 0 2 -7 1 -15 -2 -18z m-7753 -185
c163 -94 154 -84 121 -143 -15 -28 -29 -52 -30 -54 -2 -2 -15 6 -31 17 -15 11
-57 34 -93 52 -114 57 -200 169 -200 259 l0 43 62 -56 c34 -30 111 -83 171
-118z m7627 114 c-7 -3 -19 3 -28 13 -16 15 -15 16 12 4 15 -7 23 -15 16 -17z
m57 22 c-3 -3 -12 -4 -19 -1 -8 3 -5 6 6 6 11 1 17 -2 13 -5z m-57 -39 c0 -11
-31 -11 -39 -1 -9 10 -6 12 14 8 14 -2 25 -6 25 -7z m940 -135 c0 -13 -28 -25
-38 -16 -3 4 0 11 8 16 20 13 30 12 30 0z m-8221 -162 c58 -34 131 -75 161
-93 30 -17 123 -71 205 -119 192 -112 213 -125 255 -148 19 -11 64 -37 100
-58 36 -21 112 -64 170 -97 98 -56 316 -182 1200 -696 190 -110 413 -239 495
-287 83 -48 225 -130 317 -184 179 -103 254 -140 360 -175 48 -16 65 -26 62
-36 -16 -39 -181 -53 -271 -21 -29 9 -53 21 -53 25 0 5 -17 15 -37 24 -21 9
-63 31 -93 49 -30 19 -70 42 -89 53 -18 11 -47 29 -65 40 -17 12 -67 40 -111
64 -160 87 -260 145 -280 161 -11 9 -58 38 -105 64 -82 45 -234 135 -295 175
-16 10 -70 40 -118 65 -123 65 -129 68 -157 93 -14 12 -53 35 -87 53 -35 17
-68 39 -75 48 -16 22 -58 51 -123 86 -27 15 -68 38 -90 51 -83 51 -203 115
-214 115 -19 0 -305 151 -331 175 -14 12 -61 42 -105 66 -44 23 -92 51 -106
60 -14 10 -68 39 -120 65 -52 25 -107 56 -124 68 -16 12 -50 32 -75 45 -25 14
-65 37 -90 53 -25 15 -67 39 -94 54 -27 14 -81 47 -120 72 -39 26 -72 47 -74
48 -1 1 7 27 19 58 25 67 13 68 158 -16z m8078 26 c-3 -3 -12 -4 -19 -1 -8 3
-5 6 6 6 11 1 17 -2 13 -5z m-197 -114 c-8 -5 -22 -10 -30 -10 -13 0 -13 1 0
10 8 5 22 10 30 10 13 0 13 -1 0 -10z m-120 -70 c-20 -13 -33 -13 -25 0 3 6
14 10 23 10 15 0 15 -2 2 -10z m-85 -50 c-27 -12 -43 -12 -25 0 8 5 22 9 30 9
10 0 8 -3 -5 -9z m-71 -42 c-3 -4 -12 -8 -20 -8 -8 0 -13 4 -10 8 3 5 12 9 20
9 8 0 13 -4 10 -9z m-139 -78 c-3 -5 -11 -10 -16 -10 -6 0 -7 5 -4 10 3 6 11
10 16 10 6 0 7 -4 4 -10z m-75 -43 c-14 -8 -27 -12 -30 -10 -7 6 23 23 40 23
8 0 4 -6 -10 -13z m-108 -63 c-24 -14 -46 -24 -48 -21 -7 6 57 45 76 46 8 0
-4 -11 -28 -25z m-93 -53 c-13 -11 -26 -17 -29 -14 -6 6 30 33 43 33 5 0 -1
-9 -14 -19z m-60 -35 c-2 -2 -15 -9 -29 -15 -24 -11 -24 -11 -6 3 16 13 49 24
35 12z m-154 -86 c-3 -5 -14 -10 -23 -9 -14 0 -13 2 3 9 27 11 27 11 20 0z
m-45 -24 c0 -2 -12 -12 -27 -21 l-28 -18 19 21 c17 20 36 29 36 18z m-90 -56
c-8 -5 -19 -10 -25 -10 -5 0 -3 5 5 10 8 5 20 10 25 10 6 0 3 -5 -5 -10z
m-140 -80 c-27 -21 -40 -25 -40 -12 0 8 38 29 55 31 6 0 -1 -8 -15 -19z m-60
-40 c-24 -15 -36 -11 -14 4 10 8 21 12 24 10 2 -3 -2 -9 -10 -14z m-75 -40
c-3 -5 -14 -10 -23 -10 -15 0 -15 2 -2 10 20 13 33 13 25 0z m-70 -40 c-3 -5
-12 -10 -20 -10 -7 0 -16 -6 -18 -12 -4 -10 -6 -10 -6 0 -1 7 9 17 22 22 29
12 29 12 22 0z m-135 -80 c-8 -5 -22 -9 -30 -9 -10 0 -8 3 5 9 27 12 43 12 25
0z m-5201 -46 c36 -20 91 -51 121 -69 30 -18 87 -52 127 -74 49 -28 70 -46 67
-56 -6 -15 -26 -11 -64 15 -24 17 -97 58 -170 96 -19 11 -37 21 -40 24 -3 3
-30 21 -61 39 -31 18 -56 39 -56 47 0 19 1 19 76 -22z m5116 6 c-9 -15 -66
-42 -73 -36 -3 4 9 12 26 18 18 7 32 16 32 20 0 4 5 8 11 8 5 0 7 -5 4 -10z
m-91 -54 c-6 -15 -54 -40 -54 -28 0 5 39 34 57 41 1 1 0 -5 -3 -13z m-124 -76
c0 -5 -2 -10 -4 -10 -3 0 -8 5 -11 10 -3 6 -1 10 4 10 6 0 11 -4 11 -10z m-63
-36 c-3 -3 -12 -4 -19 -1 -8 3 -5 6 6 6 11 1 17 -2 13 -5z m-61 -39 c-23 -17
-36 -19 -36 -6 0 5 8 12 18 14 32 9 37 6 18 -8z m-47 -29 c-2 -2 -15 -9 -29
-16 -23 -12 -24 -12 -11 3 7 10 20 17 29 17 8 0 13 -2 11 -4z m-82 -42 c-3 -3
-12 -4 -19 -1 -8 3 -5 6 6 6 11 1 17 -2 13 -5z m-77 -45 c-13 -6 -28 -15 -32
-22 -6 -9 -8 -9 -8 0 0 14 29 33 50 32 8 0 4 -5 -10 -10z m-70 -33 c0 -2 -7
-7 -16 -10 -8 -3 -12 -2 -9 4 6 10 25 14 25 6z m-50 -40 c0 -11 -19 -15 -25
-6 -3 5 1 10 9 10 9 0 16 -2 16 -4z m-120 -67 c-14 -10 -34 -22 -45 -25 -11
-4 -23 -12 -27 -18 -6 -8 -8 -8 -8 1 0 11 35 35 73 49 9 3 17 11 17 17 0 6 3
7 7 3 4 -4 -3 -16 -17 -27z m-110 -63 c0 -2 -7 -9 -15 -16 -13 -11 -14 -10 -9
4 5 14 24 23 24 12z m-83 -42 c-3 -3 -12 -4 -19 -1 -8 3 -5 6 6 6 11 1 17 -2
13 -5z m-693 -86 c46 -111 45 -114 -59 -175 -250 -146 -303 -168 -400 -167
-92 1 -187 60 -170 105 3 8 40 25 83 38 89 27 217 89 387 189 66 39 123 71
126 71 4 1 18 -27 33 -61z m630 41 c-31 -12 -39 -10 -19 5 11 8 24 12 29 8 5
-3 1 -9 -10 -13z m-82 -41 c-6 -7 -25 -21 -44 -31 l-33 -19 35 31 c35 30 62
42 42 19z m-122 -73 c-7 -8 -18 -15 -24 -15 -6 0 -2 7 8 15 25 19 32 19 16 0z
m-53 -31 c-3 -3 -12 -4 -19 -1 -8 3 -5 6 6 6 11 1 17 -2 13 -5z m-56 -35 c-18
-11 -38 -18 -45 -16 -6 2 5 11 24 20 50 22 61 20 21 -4z m-76 -38 c3 -5 1 -12
-5 -16 -5 -3 -10 1 -10 9 0 18 6 21 15 7z m-95 -51 c0 -5 -10 -15 -22 -21
l-23 -12 20 21 c23 24 25 25 25 12z m-153 -95 c-15 -14 -33 -25 -40 -25 -6 0
4 11 23 25 45 31 53 31 17 0z m-60 -31 c-3 -3 -12 -4 -19 -1 -8 3 -5 6 6 6 11
1 17 -2 13 -5z m-57 -44 c-8 -5 -22 -10 -30 -10 -13 0 -13 1 0 10 8 5 22 10
30 10 13 0 13 -1 0 -10z"/>
<path d="M8382 7087 c-27 -13 -37 -45 -28 -98 40 -250 415 -428 802 -379 122
15 207 40 305 91 94 49 190 138 187 174 -3 30 -8 32 -130 40 -64 5 -101 12
-109 21 -6 7 -15 11 -20 8 -12 -7 -248 25 -279 38 -14 6 -68 17 -120 24 -52 8
-122 18 -155 24 -72 11 -141 20 -212 24 -48 4 -135 21 -173 34 -29 10 -45 10
-68 -1z"/>
<path d="M6545 6970 c-3 -5 1 -10 10 -10 9 0 13 5 10 10 -3 6 -8 10 -10 10 -2
0 -7 -4 -10 -10z"/>
<path d="M6220 6780 c0 -5 5 -10 11 -10 5 0 7 5 4 10 -3 6 -8 10 -11 10 -2 0
-4 -4 -4 -10z"/>
<path d="M6232 6680 c0 -14 2 -19 5 -12 2 6 2 18 0 25 -3 6 -5 1 -5 -13z"/>
<path d="M6765 6630 c-3 -5 -1 -10 4 -10 6 0 11 5 11 10 0 6 -2 10 -4 10 -3 0
-8 -4 -11 -10z"/>
<path d="M6730 6609 c0 -5 5 -7 10 -4 6 3 10 8 10 11 0 2 -4 4 -10 4 -5 0 -10
-5 -10 -11z"/>
<path d="M6557 6519 c7 -7 15 -10 18 -7 3 3 -2 9 -12 12 -14 6 -15 5 -6 -5z"/>
<path d="M6494 6475 c-10 -8 -14 -15 -8 -15 6 0 17 7 24 15 16 19 9 19 -16 0z"/>
<path d="M6370 6413 l-25 -15 30 7 c17 3 34 11 40 16 14 14 -17 9 -45 -8z"/>
<path d="M6270 6380 c0 -5 7 -10 16 -10 8 0 12 5 9 10 -3 6 -10 10 -16 10 -5
0 -9 -4 -9 -10z"/>
<path d="M6313 6373 c0 -9 5 -9 21 -1 31 16 32 18 4 16 -13 -1 -25 -8 -25 -15z"/>
<path d="M6270 6351 c-14 -4 -20 -10 -14 -14 6 -3 20 0 30 8 21 16 20 16 -16
6z"/>
<path d="M5080 4824 c-78 -30 -276 -103 -420 -154 -58 -21 -166 -60 -240 -88
-74 -28 -209 -77 -300 -110 -91 -33 -300 -110 -465 -170 -165 -61 -455 -167
-644 -236 -190 -69 -349 -130 -354 -135 -14 -14 0 -41 21 -41 9 0 114 36 232
79 118 44 481 177 805 296 325 119 700 257 833 307 134 49 246 88 248 85 2 -2
-157 -118 -353 -258 -197 -139 -405 -287 -463 -327 -132 -94 -136 -98 -75 -74
126 49 460 178 665 257 124 48 275 106 335 130 61 23 161 62 223 86 77 29 108
46 100 52 -9 6 -7 7 6 3 23 -8 86 12 86 26 0 6 3 8 6 5 4 -3 16 -1 28 5 11 7
25 11 29 10 4 -1 18 3 30 10 12 7 24 13 27 13 30 5 118 42 128 54 10 12 12 13
6 1 -7 -13 -5 -13 9 -1 9 7 17 10 17 5 0 -4 11 3 24 16 14 12 31 20 39 17 8
-3 20 -1 28 4 10 6 8 9 -10 9 -17 0 -22 4 -17 16 7 18 -16 13 -74 -16 -35 -18
-41 -20 -61 -20 -5 0 -8 -3 -6 -7 3 -5 -6 -9 -19 -9 -13 -1 -39 -8 -57 -16
-17 -8 -73 -30 -124 -48 -50 -19 -89 -38 -86 -43 4 -6 1 -7 -6 -3 -7 5 -47 -6
-89 -22 -265 -105 -866 -332 -873 -330 -4 2 25 26 64 54 287 203 814 578 822
585 15 15 -5 10 -75 -17z"/>
<path d="M5960 4840 c0 -5 5 -10 10 -10 6 0 10 5 10 10 0 6 -4 10 -10 10 -5 0
-10 -4 -10 -10z"/>
<path d="M5926 4808 c3 -4 16 -7 29 -6 13 1 22 5 19 8 -9 8 -53 7 -48 -2z"/>
<path d="M5854 4798 c-4 -6 -2 -14 4 -16 7 -2 9 -8 6 -14 -4 -6 -10 -5 -15 3
-4 7 -11 10 -16 6 -13 -14 20 -26 40 -15 15 8 16 12 7 18 -7 4 -9 13 -6 19 4
6 3 11 -3 11 -5 0 -13 -5 -17 -12z"/>
<path d="M5750 4765 c-23 -9 -28 -14 -15 -14 11 0 31 6 45 14 31 18 16 18 -30
0z"/>
<path d="M5796 4741 c-3 -4 6 -6 19 -3 14 2 25 6 25 8 0 8 -39 4 -44 -5z"/>
<path d="M5710 4730 c0 -5 5 -10 11 -10 5 0 8 -4 5 -9 -4 -5 4 -6 16 -3 19 5
20 7 6 10 -10 2 -18 8 -18 13 0 5 -4 9 -10 9 -5 0 -10 -4 -10 -10z"/>
<path d="M5740 4736 c0 -2 9 -6 20 -9 11 -3 18 -1 14 4 -5 9 -34 13 -34 5z"/>
<path d="M6265 4630 c-3 -5 -1 -10 4 -10 6 0 11 5 11 10 0 6 -2 10 -4 10 -3 0
-8 -4 -11 -10z"/>
<path d="M6220 4350 c-6 -11 -7 -20 -2 -20 6 0 12 9 15 20 3 11 3 20 1 20 -2
0 -8 -9 -14 -20z"/>
<path d="M6016 4210 c-22 -17 -35 -30 -30 -30 6 0 14 4 20 9 5 5 18 11 28 13
11 1 20 11 22 21 1 9 2 17 1 17 -1 0 -20 -14 -41 -30z"/>
<path d="M5953 4120 c-1 -16 1 -17 12 -7 7 6 11 15 8 20 -8 13 -19 7 -20 -13z"/>
<path d="M5862 4092 c-10 -10 -29 -26 -42 -35 l-23 -16 29 3 c16 2 31 0 34 -4
3 -4 23 8 45 28 22 19 34 32 28 28 -7 -4 -22 -2 -33 4 -15 8 -23 7 -38 -8z
m13 -12 c-3 -5 0 -10 7 -10 10 0 9 -3 -2 -9 -20 -13 -34 -2 -19 15 13 16 23
19 14 4z"/>
<path d="M5785 4030 c3 -5 1 -10 -4 -10 -6 0 -20 -9 -31 -20 -15 -15 -16 -20
-6 -20 8 0 16 6 19 13 2 6 8 8 13 4 10 -10 -25 -39 -37 -31 -5 3 -9 -2 -9 -11
0 -9 -4 -14 -10 -10 -5 3 -6 13 -3 23 6 15 5 16 -13 2 -52 -39 -64 -54 -52
-62 9 -6 6 -7 -8 -3 -15 4 -39 -8 -84 -42 -35 -27 -84 -63 -109 -81 -25 -17
-51 -38 -56 -45 -6 -6 -19 -17 -30 -24 -11 -6 -19 -16 -18 -22 2 -6 -3 -8 -10
-5 -7 2 -29 -10 -48 -28 -20 -18 -39 -34 -43 -35 -10 -4 -116 -83 -116 -88 0
-7 165 67 183 83 9 8 17 12 17 9 0 -8 178 69 190 82 3 3 11 7 18 9 13 2 68 26
162 70 30 14 58 25 61 24 3 0 4 10 1 23 -5 30 14 33 35 8 13 -16 14 -16 8 10
-3 17 -1 27 6 27 7 0 10 2 7 5 -3 3 -39 -10 -80 -30 -42 -19 -81 -35 -87 -35
-6 0 -11 -5 -11 -12 0 -6 -3 -9 -6 -5 -3 3 -26 -3 -51 -14 -53 -23 -59 -23
-44 -6 6 8 8 17 4 20 -3 4 3 7 15 7 13 0 22 6 22 15 0 8 5 16 10 16 6 1 15 2
21 3 5 0 19 12 30 26 12 14 18 18 14 10 -4 -8 3 -5 16 7 35 34 80 67 117 88
36 22 38 27 16 49 -17 18 -28 21 -19 6z m-71 -89 c3 -5 -5 -11 -19 -13 -26 -5
-35 6 -12 15 19 8 25 8 31 -2z m-9 -139 c-3 -3 -11 0 -18 7 -9 10 -8 11 6 5
10 -3 15 -9 12 -12z m-182 -19 c-3 -7 -6 -13 -8 -13 -2 0 -5 6 -8 13 -3 8 1
14 8 14 7 0 11 -6 8 -14z"/>
<path d="M5820 4020 c0 -5 4 -10 9 -10 6 0 13 5 16 10 3 6 -1 10 -9 10 -9 0
-16 -4 -16 -10z"/>
<path d="M6190 4010 c0 -5 7 -7 15 -4 8 4 15 8 15 10 0 2 -7 4 -15 4 -8 0 -15
-4 -15 -10z"/>
<path d="M5960 3952 c0 -7 -3 -11 -7 -10 -5 1 -21 -4 -36 -10 -16 -7 -33 -12
-38 -12 -5 0 -9 -4 -9 -10 0 -5 -10 -10 -22 -11 -13 0 -17 -3 -10 -6 10 -4 9
-8 -5 -19 -16 -12 -15 -13 15 -14 17 0 32 5 32 11 0 5 6 7 13 3 9 -5 9 -4 0 6
-10 10 -5 17 25 33 45 23 58 35 49 44 -4 3 -7 1 -7 -5z"/>
<path d="M5980 3930 c0 -5 5 -10 10 -10 6 0 10 5 10 10 0 6 -4 10 -10 10 -5 0
-10 -4 -10 -10z"/>
<path d="M8360 3590 c-8 -5 -10 -10 -5 -10 6 0 17 5 25 10 8 5 11 10 5 10 -5
0 -17 -5 -25 -10z"/>
<path d="M8056 3415 c-11 -8 -18 -17 -15 -19 2 -3 15 4 29 14 14 11 21 20 15
19 -5 0 -19 -6 -29 -14z"/>
<path d="M8075 3390 c3 -5 8 -10 11 -10 2 0 4 5 4 10 0 6 -5 10 -11 10 -5 0
-7 -4 -4 -10z"/>
<path d="M9798 3444 c-38 -20 -36 -28 2 -9 17 9 30 18 30 20 0 7 -1 6 -32 -11z"/>
<path d="M9728 3404 c-38 -20 -36 -28 2 -9 17 9 30 18 30 20 0 7 -1 6 -32 -11z"/>
<path d="M9627 3346 c-54 -33 -59 -42 -10 -17 23 11 44 25 48 31 9 14 5 13
-38 -14z"/>
<path d="M9538 3294 c-38 -20 -36 -28 2 -9 17 9 30 18 30 20 0 7 -1 6 -32 -11z"/>
<path d="M9474 3254 c-18 -14 -18 -15 4 -4 12 6 22 13 22 15 0 8 -5 6 -26 -11z"/>
<path d="M9430 3230 c-9 -6 -10 -10 -3 -10 6 0 15 5 18 10 8 12 4 12 -15 0z"/>
<path d="M9340 3180 c-19 -11 -31 -19 -27 -20 11 0 67 29 67 35 0 7 -1 7 -40
-15z"/>
<path d="M9240 3120 c-9 -6 -10 -10 -3 -10 6 0 15 5 18 10 8 12 4 12 -15 0z"/>
<path d="M9094 3034 c-18 -14 -18 -15 4 -4 12 6 22 13 22 15 0 8 -5 6 -26 -11z"/>
<path d="M9036 3005 c-11 -8 -16 -15 -10 -15 5 0 18 7 28 15 11 8 16 15 10 15
-5 0 -18 -7 -28 -15z"/>
<path d="M8979 2969 l-24 -20 28 17 c15 9 27 18 27 20 0 8 -8 4 -31 -17z"/>
<path d="M3886 398 c3 -4 9 -8 15 -8 5 0 9 4 9 8 0 5 -7 9 -15 9 -8 0 -12 -4
-9 -9z"/>
<path d="M3998 353 c7 -3 16 -2 19 1 4 3 -2 6 -13 5 -11 0 -14 -3 -6 -6z"/>
<path d="M4278 293 c7 -3 16 -2 19 1 4 3 -2 6 -13 5 -11 0 -14 -3 -6 -6z"/>
</g>
</svg>
